<?xml version="1.0" standalone="no"?>
<!DOCTYPE svg PUBLIC "-//W3C//DTD SVG 20010904//EN"
 "http://www.w3.org/TR/2001/REC-SVG-20010904/DTD/svg10.dtd">
<svg version="1.0" xmlns="http://www.w3.org/2000/svg"
 width="589.000000pt" height="589.000000pt" viewBox="0 0 589.000000 589.000000"
 preserveAspectRatio="xMidYMid meet">
<metadata>
Created by potrace 1.14, written by Peter Selinger 2001-2017
</metadata>
<g transform="translate(0.000000,589.000000) scale(0.100000,-0.100000)"
fill="#000000" stroke="none">
<path d="M4040 5181 l-1096 -549 -369 184 c-204 101 -697 346 -1097 544 l-728
360 -375 -186 -375 -186 0 -1857 0 -1856 375 -187 375 -188 117 58 c65 32 386
194 714 360 328 166 599 302 603 302 3 0 6 -325 6 -723 l0 -722 375 -188 375
-187 1475 737 1475 738 0 1860 0 1860 -375 188 c-206 103 -376 187 -378 186
-1 0 -495 -247 -1097 -548z m-2466 -1362 c75 -38 48 -25 316 -158 270 -135
294 -147 297 -158 2 -4 -152 -86 -342 -181 l-345 -172 0 350 c0 193 3 350 6
350 3 0 34 -14 68 -31z m2816 -319 l0 -350 -352 176 -353 176 345 174 c190 95
348 173 353 173 4 1 7 -157 7 -349z"/>
</g>
</svg>
